<svg width="100" height="40" viewBox="0 0 100 40" fill="none" xmlns="http://www.w3.org/2000/svg">
<path d="M38.8751 2L37.2444 5.26135H14.4148L9.52274 15.0454L7.07671 10.1534L9.52274 5.26135H4.63068L3 2H38.8751Z" fill="white"/>
<path d="M35.6137 8.52289H17.6761L11.9688 19.9376H25.0142L21.7529 26.4603H15.2301L20.9375 37.8751L31.537 16.6763H18.4915L20.9375 11.7842H33.983L35.6137 8.52289Z" fill="white"/>
<path d="M46.1364 29.4088L44.6307 29.835C44.536 29.584 44.3963 29.3402 44.2116 29.1034C44.0317 28.862 43.7855 28.6631 43.473 28.5069C43.1605 28.3506 42.7604 28.2725 42.2727 28.2725C41.6051 28.2725 41.0488 28.4264 40.6037 28.7341C40.1634 29.0372 39.9432 29.4231 39.9432 29.8918C39.9432 30.3085 40.0947 30.6375 40.3977 30.879C40.7008 31.1205 41.1742 31.3217 41.8182 31.4827L43.4375 31.8804C44.4129 32.1172 45.1397 32.4794 45.6179 32.9671C46.0961 33.45 46.3352 34.0727 46.3352 34.835C46.3352 35.46 46.1553 36.0187 45.7955 36.5111C45.4403 37.0035 44.9432 37.3918 44.304 37.6759C43.6648 37.96 42.9214 38.102 42.0739 38.102C40.9612 38.102 40.0402 37.8606 39.3111 37.3776C38.5819 36.8946 38.1203 36.1891 37.9261 35.2611L39.517 34.8634C39.6686 35.4505 39.955 35.8909 40.3764 36.1844C40.8026 36.478 41.3589 36.6248 42.0455 36.6248C42.8267 36.6248 43.447 36.459 43.9062 36.1276C44.3703 35.7914 44.6023 35.389 44.6023 34.9202C44.6023 34.5414 44.4697 34.2242 44.2045 33.9685C43.9394 33.7081 43.5322 33.514 42.983 33.3861L41.1648 32.96C40.1657 32.7232 39.4318 32.3563 38.9631 31.8591C38.4991 31.3572 38.267 30.7299 38.267 29.977C38.267 29.3615 38.4399 28.817 38.7855 28.3435C39.1359 27.87 39.6117 27.4983 40.2131 27.2284C40.8191 26.9586 41.5057 26.8236 42.2727 26.8236C43.3523 26.8236 44.1998 27.0604 44.8153 27.5338C45.4356 28.0073 45.8759 28.6323 46.1364 29.4088ZM53.4322 38.102C52.381 38.102 51.4743 37.87 50.712 37.406C49.9544 36.9373 49.3697 36.2838 48.9577 35.4458C48.5505 34.603 48.3469 33.6229 48.3469 32.5054C48.3469 31.388 48.5505 30.4032 48.9577 29.5509C49.3697 28.6939 49.9426 28.0263 50.6765 27.5481C51.4151 27.0651 52.2769 26.8236 53.2617 26.8236C53.8299 26.8236 54.391 26.9183 54.945 27.1077C55.4989 27.2971 56.0032 27.6049 56.4577 28.031C56.9123 28.4524 57.2745 29.0111 57.5444 29.7071C57.8143 30.4032 57.9492 31.2602 57.9492 32.2782V32.9884H49.5401V31.5395H56.2447C56.2447 30.924 56.1216 30.3748 55.8754 29.8918C55.6339 29.4088 55.2882 29.0277 54.8384 28.7483C54.3933 28.469 53.8678 28.3293 53.2617 28.3293C52.5941 28.3293 52.0165 28.495 51.5288 28.8265C51.0458 29.1532 50.6741 29.5793 50.4137 30.1049C50.1533 30.6304 50.0231 31.1939 50.0231 31.7952V32.7611C50.0231 33.585 50.1651 34.2834 50.4492 34.8563C50.738 35.4245 51.1381 35.8577 51.6495 36.156C52.1609 36.4496 52.7551 36.5963 53.4322 36.5963C53.8725 36.5963 54.2702 36.5348 54.6254 36.4117C54.9852 36.2838 55.2953 36.0945 55.5558 35.8435C55.8162 35.5878 56.0174 35.2706 56.1594 34.8918L57.7788 35.3463C57.6083 35.8956 57.3219 36.3785 56.9194 36.7952C56.5169 37.2071 56.0198 37.5291 55.4279 37.7611C54.8361 37.9884 54.1708 38.102 53.4322 38.102ZM64.9308 38.102C63.908 38.102 63.0273 37.8606 62.2887 37.3776C61.5501 36.8946 60.9819 36.2294 60.5842 35.3819C60.1864 34.5343 59.9876 33.566 59.9876 32.477C59.9876 31.3691 60.1912 30.3913 60.5984 29.5438C61.0103 28.6915 61.5832 28.0263 62.3171 27.5481C63.0558 27.0651 63.9175 26.8236 64.9023 26.8236C65.6694 26.8236 66.3607 26.9657 66.9762 27.2498C67.5917 27.5338 68.096 27.9316 68.489 28.4429C68.882 28.9543 69.1258 29.5509 69.2205 30.2327H67.5444C67.4165 29.7356 67.1325 29.2952 66.6921 28.9117C66.2565 28.5234 65.6694 28.3293 64.9308 28.3293C64.2773 28.3293 63.7044 28.4998 63.212 28.8407C62.7243 29.1768 62.3432 29.6527 62.0685 30.2682C61.7987 30.879 61.6637 31.5963 61.6637 32.4202C61.6637 33.263 61.7963 33.9969 62.0614 34.6219C62.3313 35.2469 62.7101 35.7322 63.1978 36.0779C63.6902 36.4235 64.2679 36.5963 64.9308 36.5963C65.3664 36.5963 65.7617 36.5206 66.1168 36.3691C66.4719 36.2176 66.7726 35.9998 67.0188 35.7157C67.265 35.4316 67.4402 35.0907 67.5444 34.6929H69.2205C69.1258 35.3369 68.8915 35.9169 68.5174 36.433C68.1481 36.9444 67.658 37.3516 67.0472 37.6546C66.4412 37.9529 65.7357 38.102 64.9308 38.102ZM71.6708 37.8748V26.9657H73.2901V28.6134H73.4038C73.6026 28.0736 73.9625 27.6356 74.4833 27.2995C75.0041 26.9633 75.5913 26.7952 76.2447 26.7952C76.3678 26.7952 76.5217 26.7976 76.7063 26.8023C76.891 26.807 77.0307 26.8141 77.1254 26.8236V28.5282C77.0685 28.514 76.9383 28.4927 76.7347 28.4642C76.5359 28.4311 76.3252 28.4145 76.1026 28.4145C75.5723 28.4145 75.0988 28.5258 74.6822 28.7483C74.2702 28.9661 73.9435 29.2692 73.7021 29.6574C73.4653 30.0409 73.3469 30.4789 73.3469 30.9713V37.8748H71.6708ZM83.354 38.102C82.3029 38.102 81.3962 37.87 80.6339 37.406C79.8763 36.9373 79.2915 36.2838 78.8796 35.4458C78.4724 34.603 78.2688 33.6229 78.2688 32.5054C78.2688 31.388 78.4724 30.4032 78.8796 29.5509C79.2915 28.6939 79.8645 28.0263 80.5984 27.5481C81.337 27.0651 82.1987 26.8236 83.1836 26.8236C83.7518 26.8236 84.3129 26.9183 84.8668 27.1077C85.4208 27.2971 85.9251 27.6049 86.3796 28.031C86.8342 28.4524 87.1964 29.0111 87.4663 29.7071C87.7362 30.4032 87.8711 31.2602 87.8711 32.2782V32.9884H79.462V31.5395H86.1665C86.1665 30.924 86.0434 30.3748 85.7972 29.8918C85.5558 29.4088 85.2101 29.0277 84.7603 28.7483C84.3152 28.469 83.7897 28.3293 83.1836 28.3293C82.516 28.3293 81.9383 28.495 81.4506 28.8265C80.9677 29.1532 80.596 29.5793 80.3356 30.1049C80.0752 30.6304 79.945 31.1939 79.945 31.7952V32.7611C79.945 33.585 80.087 34.2834 80.3711 34.8563C80.6599 35.4245 81.06 35.8577 81.5714 36.156C82.0827 36.4496 82.677 36.5963 83.354 36.5963C83.7944 36.5963 84.1921 36.5348 84.5472 36.4117C84.9071 36.2838 85.2172 36.0945 85.4776 35.8435C85.738 35.5878 85.9393 35.2706 86.0813 34.8918L87.7006 35.3463C87.5302 35.8956 87.2437 36.3785 86.8413 36.7952C86.4388 37.2071 85.9416 37.5291 85.3498 37.7611C84.7579 37.9884 84.0927 38.102 83.354 38.102ZM95.1651 26.9657V28.3861H89.5117V26.9657H95.1651ZM91.1594 24.352H92.8356V34.7498C92.8356 35.2232 92.9042 35.5784 93.0415 35.8151C93.1836 36.0471 93.3635 36.2034 93.5813 36.2838C93.8039 36.3596 94.0382 36.3975 94.2844 36.3975C94.4691 36.3975 94.6206 36.388 94.739 36.3691C94.8574 36.3454 94.9521 36.3265 95.0231 36.3123L95.364 37.8179C95.2504 37.8606 95.0917 37.9032 94.8881 37.9458C94.6845 37.9931 94.4265 38.0168 94.114 38.0168C93.6405 38.0168 93.1765 37.915 92.7219 37.7114C92.2721 37.5078 91.8981 37.1977 91.5998 36.781C91.3062 36.3643 91.1594 35.8388 91.1594 35.2043V24.352Z" fill="white"/>
<path d="M54.4091 6.78385V8.48839H47.625V6.78385H54.4091ZM49.6023 3.64748H51.6136V16.1248C51.6136 16.6929 51.696 17.1191 51.8608 17.4032C52.0313 17.6816 52.2472 17.8691 52.5085 17.9657C52.7756 18.0566 53.0568 18.102 53.3523 18.102C53.5739 18.102 53.7557 18.0907 53.8977 18.0679C54.0398 18.0395 54.1534 18.0168 54.2386 17.9998L54.6477 19.8066C54.5114 19.8577 54.321 19.9088 54.0767 19.96C53.8324 20.0168 53.5227 20.0452 53.1477 20.0452C52.5795 20.0452 52.0227 19.9231 51.4773 19.6787C50.9375 19.4344 50.4886 19.0623 50.1307 18.5623C49.7784 18.0623 49.6023 17.4316 49.6023 16.6702V3.64748ZM57.4347 19.8748V6.78385H59.446V19.8748H57.4347ZM58.4574 4.60203C58.0653 4.60203 57.7273 4.46851 57.4432 4.20146C57.1648 3.93441 57.0256 3.61339 57.0256 3.23839C57.0256 2.86339 57.1648 2.54237 57.4432 2.27532C57.7273 2.00828 58.0653 1.87476 58.4574 1.87476C58.8494 1.87476 59.1847 2.00828 59.4631 2.27532C59.7472 2.54237 59.8892 2.86339 59.8892 3.23839C59.8892 3.61339 59.7472 3.93441 59.4631 4.20146C59.1847 4.46851 58.8494 4.60203 58.4574 4.60203ZM63.13 19.8748V6.78385H65.0732V8.8293H65.2436C65.5163 8.13044 65.9567 7.58782 66.5646 7.20146C67.1726 6.80941 67.9027 6.61339 68.755 6.61339C69.6186 6.61339 70.3374 6.80941 70.9112 7.20146C71.4908 7.58782 71.9425 8.13044 72.2663 8.8293H72.4027C72.7379 8.15316 73.2408 7.61623 73.9112 7.21851C74.5817 6.8151 75.3857 6.61339 76.3232 6.61339C77.4936 6.61339 78.451 6.97987 79.1953 7.71282C79.9396 8.4401 80.3118 9.57362 80.3118 11.1134V19.8748H78.3004V11.1134C78.3004 10.1475 78.0362 9.45714 77.5078 9.04237C76.9794 8.6276 76.3572 8.42021 75.6413 8.42021C74.7209 8.42021 74.0078 8.69862 73.5021 9.25544C72.9964 9.80657 72.7436 10.5054 72.7436 11.352V19.8748H70.6982V10.9088C70.6982 10.1645 70.4567 9.5651 69.9737 9.11055C69.4908 8.65032 68.8686 8.42021 68.1072 8.42021C67.5845 8.42021 67.0959 8.55941 66.6413 8.83782C66.1925 9.11623 65.8288 9.5026 65.5504 9.99691C65.2777 10.4856 65.1413 11.0509 65.1413 11.6929V19.8748H63.13ZM89.478 20.1475C88.2166 20.1475 87.1286 19.8691 86.2138 19.3123C85.3047 18.7498 84.603 17.9657 84.1087 16.96C83.62 15.9486 83.3757 14.7725 83.3757 13.4316C83.3757 12.0907 83.62 10.9088 84.1087 9.88612C84.603 8.85771 85.2905 8.05657 86.1712 7.48271C87.0575 6.90316 88.0916 6.61339 89.2734 6.61339C89.9553 6.61339 90.6286 6.72703 91.2933 6.9543C91.9581 7.18157 92.5632 7.55089 93.1087 8.06226C93.6541 8.56794 94.0888 9.23839 94.4126 10.0736C94.7365 10.9088 94.8984 11.9373 94.8984 13.1588V14.0111H84.8075V12.2725H92.853C92.853 11.5338 92.7053 10.8748 92.4098 10.2952C92.12 9.71566 91.7053 9.25828 91.1655 8.92305C90.6314 8.58782 90.0007 8.42021 89.2734 8.42021C88.4723 8.42021 87.7791 8.61907 87.1939 9.0168C86.6143 9.40885 86.1683 9.92021 85.8558 10.5509C85.5433 11.1816 85.3871 11.8577 85.3871 12.5793V13.7384C85.3871 14.727 85.5575 15.5651 85.8984 16.2526C86.245 16.9344 86.7251 17.4543 87.3388 17.8123C87.9524 18.1645 88.6655 18.3407 89.478 18.3407C90.0064 18.3407 90.4837 18.2668 90.9098 18.1191C91.3416 17.9657 91.7138 17.7384 92.0263 17.4373C92.3388 17.1304 92.5803 16.7498 92.7507 16.2952L94.6939 16.8407C94.4893 17.4998 94.1456 18.0793 93.6626 18.5793C93.1797 19.0736 92.5831 19.46 91.8729 19.7384C91.1626 20.0111 90.3643 20.1475 89.478 20.1475Z" fill="white"/>
</svg>
