<svg width="100" height="50" viewBox="0 0 100 50" fill="none" xmlns="http://www.w3.org/2000/svg">
<rect width="100" height="50" fill="#171717"/>
<path d="M39.875 7L38.1989 10.3523H14.733L9.70455 20.409L7.19034 15.3807L9.70455 10.3523H4.67614L3 7H39.875Z" fill="white"/>
<path d="M36.5227 13.7048H18.0852L12.2188 25.4377H25.6278L22.2756 32.1423H15.571L21.4375 43.8752L32.3324 22.0855H18.9233L21.4375 17.0571H34.8466L36.5227 13.7048Z" fill="white"/>
<path d="M47.1364 35.4088L45.6307 35.835C45.536 35.584 45.3963 35.3402 45.2116 35.1034C45.0317 34.862 44.7855 34.6631 44.473 34.5069C44.1605 34.3506 43.7604 34.2725 43.2727 34.2725C42.6051 34.2725 42.0488 34.4264 41.6037 34.7341C41.1634 35.0372 40.9432 35.4231 40.9432 35.8918C40.9432 36.3085 41.0947 36.6375 41.3977 36.879C41.7008 37.1205 42.1742 37.3217 42.8182 37.4827L44.4375 37.8804C45.4129 38.1172 46.1397 38.4794 46.6179 38.9671C47.0961 39.45 47.3352 40.0727 47.3352 40.835C47.3352 41.46 47.1553 42.0187 46.7955 42.5111C46.4403 43.0035 45.9432 43.3918 45.304 43.6759C44.6648 43.96 43.9214 44.102 43.0739 44.102C41.9612 44.102 41.0402 43.8606 40.3111 43.3776C39.5819 42.8946 39.1203 42.1891 38.9261 41.2611L40.517 40.8634C40.6686 41.4505 40.955 41.8909 41.3764 42.1844C41.8026 42.478 42.3589 42.6248 43.0455 42.6248C43.8267 42.6248 44.447 42.459 44.9062 42.1276C45.3703 41.7914 45.6023 41.389 45.6023 40.9202C45.6023 40.5414 45.4697 40.2242 45.2045 39.9685C44.9394 39.7081 44.5322 39.514 43.983 39.3861L42.1648 38.96C41.1657 38.7232 40.4318 38.3563 39.9631 37.8591C39.4991 37.3572 39.267 36.7299 39.267 35.977C39.267 35.3615 39.4399 34.817 39.7855 34.3435C40.1359 33.87 40.6117 33.4983 41.2131 33.2284C41.8191 32.9586 42.5057 32.8236 43.2727 32.8236C44.3523 32.8236 45.1998 33.0604 45.8153 33.5338C46.4356 34.0073 46.8759 34.6323 47.1364 35.4088ZM54.4322 44.102C53.381 44.102 52.4743 43.87 51.712 43.406C50.9544 42.9373 50.3697 42.2838 49.9577 41.4458C49.5505 40.603 49.3469 39.6229 49.3469 38.5054C49.3469 37.388 49.5505 36.4032 49.9577 35.5509C50.3697 34.6939 50.9426 34.0263 51.6765 33.5481C52.4151 33.0651 53.2769 32.8236 54.2617 32.8236C54.8299 32.8236 55.391 32.9183 55.945 33.1077C56.4989 33.2971 57.0032 33.6049 57.4577 34.031C57.9123 34.4524 58.2745 35.0111 58.5444 35.7071C58.8143 36.4032 58.9492 37.2602 58.9492 38.2782V38.9884H50.5401V37.5395H57.2447C57.2447 36.924 57.1216 36.3748 56.8754 35.8918C56.6339 35.4088 56.2882 35.0277 55.8384 34.7483C55.3933 34.469 54.8678 34.3293 54.2617 34.3293C53.5941 34.3293 53.0165 34.495 52.5288 34.8265C52.0458 35.1532 51.6741 35.5793 51.4137 36.1049C51.1533 36.6304 51.0231 37.1939 51.0231 37.7952V38.7611C51.0231 39.585 51.1651 40.2834 51.4492 40.8563C51.738 41.4245 52.1381 41.8577 52.6495 42.156C53.1609 42.4496 53.7551 42.5963 54.4322 42.5963C54.8725 42.5963 55.2702 42.5348 55.6254 42.4117C55.9852 42.2838 56.2953 42.0945 56.5558 41.8435C56.8162 41.5878 57.0174 41.2706 57.1594 40.8918L58.7788 41.3463C58.6083 41.8956 58.3219 42.3785 57.9194 42.7952C57.5169 43.2071 57.0198 43.5291 56.4279 43.7611C55.8361 43.9884 55.1708 44.102 54.4322 44.102ZM65.9308 44.102C64.908 44.102 64.0273 43.8606 63.2887 43.3776C62.5501 42.8946 61.9819 42.2294 61.5842 41.3819C61.1864 40.5343 60.9876 39.566 60.9876 38.477C60.9876 37.3691 61.1912 36.3913 61.5984 35.5438C62.0103 34.6915 62.5832 34.0263 63.3171 33.5481C64.0558 33.0651 64.9175 32.8236 65.9023 32.8236C66.6694 32.8236 67.3607 32.9657 67.9762 33.2498C68.5917 33.5338 69.096 33.9316 69.489 34.4429C69.882 34.9543 70.1258 35.5509 70.2205 36.2327H68.5444C68.4165 35.7356 68.1325 35.2952 67.6921 34.9117C67.2565 34.5234 66.6694 34.3293 65.9308 34.3293C65.2773 34.3293 64.7044 34.4998 64.212 34.8407C63.7243 35.1768 63.3432 35.6527 63.0685 36.2682C62.7987 36.879 62.6637 37.5963 62.6637 38.4202C62.6637 39.263 62.7963 39.9969 63.0614 40.6219C63.3313 41.2469 63.7101 41.7322 64.1978 42.0779C64.6902 42.4235 65.2679 42.5963 65.9308 42.5963C66.3664 42.5963 66.7617 42.5206 67.1168 42.3691C67.4719 42.2176 67.7726 41.9998 68.0188 41.7157C68.265 41.4316 68.4402 41.0907 68.5444 40.6929H70.2205C70.1258 41.3369 69.8915 41.9169 69.5174 42.433C69.1481 42.9444 68.658 43.3516 68.0472 43.6546C67.4412 43.9529 66.7357 44.102 65.9308 44.102ZM72.6708 43.8748V32.9657H74.2901V34.6134H74.4038C74.6026 34.0736 74.9625 33.6356 75.4833 33.2995C76.0041 32.9633 76.5913 32.7952 77.2447 32.7952C77.3678 32.7952 77.5217 32.7976 77.7063 32.8023C77.891 32.807 78.0307 32.8141 78.1254 32.8236V34.5282C78.0685 34.514 77.9383 34.4927 77.7347 34.4642C77.5359 34.4311 77.3252 34.4145 77.1026 34.4145C76.5723 34.4145 76.0988 34.5258 75.6822 34.7483C75.2702 34.9661 74.9435 35.2692 74.7021 35.6574C74.4653 36.0409 74.3469 36.4789 74.3469 36.9713V43.8748H72.6708ZM84.354 44.102C83.3029 44.102 82.3962 43.87 81.6339 43.406C80.8763 42.9373 80.2915 42.2838 79.8796 41.4458C79.4724 40.603 79.2688 39.6229 79.2688 38.5054C79.2688 37.388 79.4724 36.4032 79.8796 35.5509C80.2915 34.6939 80.8645 34.0263 81.5984 33.5481C82.337 33.0651 83.1987 32.8236 84.1836 32.8236C84.7518 32.8236 85.3129 32.9183 85.8668 33.1077C86.4208 33.2971 86.9251 33.6049 87.3796 34.031C87.8342 34.4524 88.1964 35.0111 88.4663 35.7071C88.7362 36.4032 88.8711 37.2602 88.8711 38.2782V38.9884H80.462V37.5395H87.1665C87.1665 36.924 87.0434 36.3748 86.7972 35.8918C86.5558 35.4088 86.2101 35.0277 85.7603 34.7483C85.3152 34.469 84.7897 34.3293 84.1836 34.3293C83.516 34.3293 82.9383 34.495 82.4506 34.8265C81.9677 35.1532 81.596 35.5793 81.3356 36.1049C81.0752 36.6304 80.945 37.1939 80.945 37.7952V38.7611C80.945 39.585 81.087 40.2834 81.3711 40.8563C81.6599 41.4245 82.06 41.8577 82.5714 42.156C83.0827 42.4496 83.677 42.5963 84.354 42.5963C84.7944 42.5963 85.1921 42.5348 85.5472 42.4117C85.9071 42.2838 86.2172 42.0945 86.4776 41.8435C86.738 41.5878 86.9393 41.2706 87.0813 40.8918L88.7006 41.3463C88.5302 41.8956 88.2437 42.3785 87.8413 42.7952C87.4388 43.2071 86.9416 43.5291 86.3498 43.7611C85.7579 43.9884 85.0927 44.102 84.354 44.102ZM96.1651 32.9657V34.3861H90.5117V32.9657H96.1651ZM92.1594 30.352H93.8356V40.7498C93.8356 41.2232 93.9042 41.5784 94.0415 41.8151C94.1836 42.0471 94.3635 42.2034 94.5813 42.2838C94.8039 42.3596 95.0382 42.3975 95.2844 42.3975C95.4691 42.3975 95.6206 42.388 95.739 42.3691C95.8574 42.3454 95.9521 42.3265 96.0231 42.3123L96.364 43.8179C96.2504 43.8606 96.0917 43.9032 95.8881 43.9458C95.6845 43.9931 95.4265 44.0168 95.114 44.0168C94.6405 44.0168 94.1765 43.915 93.7219 43.7114C93.2721 43.5078 92.8981 43.1977 92.5998 42.781C92.3062 42.3643 92.1594 41.8388 92.1594 41.2043V30.352Z" fill="white"/>
<path d="M55.4091 12.7838V14.4884H48.625V12.7838H55.4091ZM50.6023 9.64748H52.6136V22.1248C52.6136 22.6929 52.696 23.1191 52.8608 23.4032C53.0313 23.6816 53.2472 23.8691 53.5085 23.9657C53.7756 24.0566 54.0568 24.102 54.3523 24.102C54.5739 24.102 54.7557 24.0907 54.8977 24.0679C55.0398 24.0395 55.1534 24.0168 55.2386 23.9998L55.6477 25.8066C55.5114 25.8577 55.321 25.9088 55.0767 25.96C54.8324 26.0168 54.5227 26.0452 54.1477 26.0452C53.5795 26.0452 53.0227 25.9231 52.4773 25.6787C51.9375 25.4344 51.4886 25.0623 51.1307 24.5623C50.7784 24.0623 50.6023 23.4316 50.6023 22.6702V9.64748ZM58.4347 25.8748V12.7838H60.446V25.8748H58.4347ZM59.4574 10.602C59.0653 10.602 58.7273 10.4685 58.4432 10.2015C58.1648 9.93441 58.0256 9.61339 58.0256 9.23839C58.0256 8.86339 58.1648 8.54237 58.4432 8.27532C58.7273 8.00828 59.0653 7.87476 59.4574 7.87476C59.8494 7.87476 60.1847 8.00828 60.4631 8.27532C60.7472 8.54237 60.8892 8.86339 60.8892 9.23839C60.8892 9.61339 60.7472 9.93441 60.4631 10.2015C60.1847 10.4685 59.8494 10.602 59.4574 10.602ZM64.13 25.8748V12.7838H66.0732V14.8293H66.2436C66.5163 14.1304 66.9567 13.5878 67.5646 13.2015C68.1726 12.8094 68.9027 12.6134 69.755 12.6134C70.6186 12.6134 71.3374 12.8094 71.9112 13.2015C72.4908 13.5878 72.9425 14.1304 73.2663 14.8293H73.4027C73.7379 14.1532 74.2408 13.6162 74.9112 13.2185C75.5817 12.8151 76.3857 12.6134 77.3232 12.6134C78.4936 12.6134 79.451 12.9799 80.1953 13.7128C80.9396 14.4401 81.3118 15.5736 81.3118 17.1134V25.8748H79.3004V17.1134C79.3004 16.1475 79.0362 15.4571 78.5078 15.0424C77.9794 14.6276 77.3572 14.4202 76.6413 14.4202C75.7209 14.4202 75.0078 14.6986 74.5021 15.2554C73.9964 15.8066 73.7436 16.5054 73.7436 17.352V25.8748H71.6982V16.9088C71.6982 16.1645 71.4567 15.5651 70.9737 15.1106C70.4908 14.6503 69.8686 14.4202 69.1072 14.4202C68.5845 14.4202 68.0959 14.5594 67.6413 14.8378C67.1925 15.1162 66.8288 15.5026 66.5504 15.9969C66.2777 16.4856 66.1413 17.0509 66.1413 17.6929V25.8748H64.13ZM90.478 26.1475C89.2166 26.1475 88.1286 25.8691 87.2138 25.3123C86.3047 24.7498 85.603 23.9657 85.1087 22.96C84.62 21.9486 84.3757 20.7725 84.3757 19.4316C84.3757 18.0907 84.62 16.9088 85.1087 15.8861C85.603 14.8577 86.2905 14.0566 87.1712 13.4827C88.0575 12.9032 89.0916 12.6134 90.2734 12.6134C90.9553 12.6134 91.6286 12.727 92.2933 12.9543C92.9581 13.1816 93.5632 13.5509 94.1087 14.0623C94.6541 14.5679 95.0888 15.2384 95.4126 16.0736C95.7365 16.9088 95.8984 17.9373 95.8984 19.1588V20.0111H85.8075V18.2725H93.853C93.853 17.5338 93.7053 16.8748 93.4098 16.2952C93.12 15.7157 92.7053 15.2583 92.1655 14.9231C91.6314 14.5878 91.0007 14.4202 90.2734 14.4202C89.4723 14.4202 88.7791 14.6191 88.1939 15.0168C87.6143 15.4088 87.1683 15.9202 86.8558 16.5509C86.5433 17.1816 86.3871 17.8577 86.3871 18.5793V19.7384C86.3871 20.727 86.5575 21.5651 86.8984 22.2526C87.245 22.9344 87.7251 23.4543 88.3388 23.8123C88.9524 24.1645 89.6655 24.3407 90.478 24.3407C91.0064 24.3407 91.4837 24.2668 91.9098 24.1191C92.3416 23.9657 92.7138 23.7384 93.0263 23.4373C93.3388 23.1304 93.5803 22.7498 93.7507 22.2952L95.6939 22.8407C95.4893 23.4998 95.1456 24.0793 94.6626 24.5793C94.1797 25.0736 93.5831 25.46 92.8729 25.7384C92.1626 26.0111 91.3643 26.1475 90.478 26.1475Z" fill="white"/>
</svg>
